<mxfile host="app.diagrams.net" modified="2023-03-23T16:04:45.492Z" agent="5.0 (Macintosh)" etag="dvcnTouEX0K5kv-MbzPT" compressed="false" version="21.0.10" type="device">
  <diagram name="Page-1" id="2YBvvXClWsGukQMizWep">
    <mxGraphModel dx="1363" dy="877" grid="1" gridSize="10" guides="1" tooltips="1" connect="1" arrows="1" fold="1" page="1" pageScale="1" pageWidth="2500" pageHeight="2500" math="0" shadow="0">
      <root>
        <mxCell id="0" />
        <mxCell id="1" parent="0" />
        <mxCell id="aM9ryv3xv72pqoxQDRHE-5" value="Repository" style="shape=umlLifeline;perimeter=lifelinePerimeter;whiteSpace=wrap;html=1;container=0;dropTarget=0;collapsible=0;recursiveResize=0;outlineConnect=0;portConstraint=eastwest;newEdgeStyle={&quot;edgeStyle&quot;:&quot;elbowEdgeStyle&quot;,&quot;elbow&quot;:&quot;vertical&quot;,&quot;curved&quot;:0,&quot;rounded&quot;:0};" parent="1" vertex="1">
          <mxGeometry x="580" y="40" width="130" height="1080" as="geometry" />
        </mxCell>
        <mxCell id="aM9ryv3xv72pqoxQDRHE-6" value="" style="html=1;points=[];perimeter=orthogonalPerimeter;outlineConnect=0;targetShapes=umlLifeline;portConstraint=eastwest;newEdgeStyle={&quot;edgeStyle&quot;:&quot;elbowEdgeStyle&quot;,&quot;elbow&quot;:&quot;vertical&quot;,&quot;curved&quot;:0,&quot;rounded&quot;:0};strokeColor=#3399FF;" parent="aM9ryv3xv72pqoxQDRHE-5" vertex="1">
          <mxGeometry x="60" y="440" width="10" height="80" as="geometry" />
        </mxCell>
        <mxCell id="fCjNDRdymDhb6TnAWpX7-8" value="Student" style="shape=umlActor;verticalLabelPosition=bottom;verticalAlign=top;html=1;outlineConnect=0;strokeColor=#000000;fontSize=13;" parent="1" vertex="1">
          <mxGeometry x="50" y="40" width="30" height="60" as="geometry" />
        </mxCell>
        <mxCell id="fCjNDRdymDhb6TnAWpX7-12" value="" style="html=1;points=[];perimeter=orthogonalPerimeter;outlineConnect=0;targetShapes=umlLifeline;portConstraint=eastwest;newEdgeStyle={&quot;edgeStyle&quot;:&quot;elbowEdgeStyle&quot;,&quot;elbow&quot;:&quot;vertical&quot;,&quot;curved&quot;:0,&quot;rounded&quot;:0};strokeColor=#3399FF;" parent="1" vertex="1">
          <mxGeometry x="60" y="130" width="10" height="970" as="geometry" />
        </mxCell>
        <mxCell id="fCjNDRdymDhb6TnAWpX7-27" value="Book Search Interface" style="shape=umlLifeline;perimeter=lifelinePerimeter;whiteSpace=wrap;html=1;container=0;dropTarget=0;collapsible=0;recursiveResize=0;outlineConnect=0;portConstraint=eastwest;newEdgeStyle={&quot;edgeStyle&quot;:&quot;elbowEdgeStyle&quot;,&quot;elbow&quot;:&quot;vertical&quot;,&quot;curved&quot;:0,&quot;rounded&quot;:0};" parent="1" vertex="1">
          <mxGeometry x="230" y="40" width="120" height="1080" as="geometry" />
        </mxCell>
        <mxCell id="fCjNDRdymDhb6TnAWpX7-28" value="" style="html=1;points=[];perimeter=orthogonalPerimeter;outlineConnect=0;targetShapes=umlLifeline;portConstraint=eastwest;newEdgeStyle={&quot;edgeStyle&quot;:&quot;elbowEdgeStyle&quot;,&quot;elbow&quot;:&quot;vertical&quot;,&quot;curved&quot;:0,&quot;rounded&quot;:0};strokeColor=#3399FF;" parent="fCjNDRdymDhb6TnAWpX7-27" vertex="1">
          <mxGeometry x="55" y="90" width="10" height="970" as="geometry" />
        </mxCell>
        <mxCell id="fCjNDRdymDhb6TnAWpX7-33" value="" style="endArrow=none;dashed=1;html=1;rounded=0;fontSize=13;" parent="1" target="fCjNDRdymDhb6TnAWpX7-12" edge="1">
          <mxGeometry width="50" height="50" relative="1" as="geometry">
            <mxPoint x="65" y="1120" as="sourcePoint" />
            <mxPoint x="65" y="660" as="targetPoint" />
            <Array as="points" />
          </mxGeometry>
        </mxCell>
        <mxCell id="fCjNDRdymDhb6TnAWpX7-42" value="selectCategory(category)" style="text;html=1;strokeColor=none;fillColor=none;align=center;verticalAlign=middle;whiteSpace=wrap;rounded=0;fontSize=13;" parent="1" vertex="1">
          <mxGeometry x="70" y="190" width="170" height="20" as="geometry" />
        </mxCell>
        <mxCell id="fCjNDRdymDhb6TnAWpX7-45" value="opt" style="shape=umlFrame;whiteSpace=wrap;html=1;pointerEvents=0;strokeColor=#000000;fontSize=13;width=40;height=20;" parent="1" vertex="1">
          <mxGeometry x="10" y="150" width="310" height="80" as="geometry" />
        </mxCell>
        <mxCell id="fCjNDRdymDhb6TnAWpX7-46" value="[Category]" style="text;html=1;strokeColor=none;fillColor=none;align=center;verticalAlign=middle;whiteSpace=wrap;rounded=0;fontSize=13;" parent="1" vertex="1">
          <mxGeometry x="10" y="170" width="70" height="20" as="geometry" />
        </mxCell>
        <mxCell id="fCjNDRdymDhb6TnAWpX7-51" value="" style="endArrow=classic;html=1;rounded=0;fontSize=13;" parent="1" source="fCjNDRdymDhb6TnAWpX7-12" target="fCjNDRdymDhb6TnAWpX7-28" edge="1">
          <mxGeometry width="50" height="50" relative="1" as="geometry">
            <mxPoint x="70" y="230" as="sourcePoint" />
            <mxPoint x="285" y="230" as="targetPoint" />
            <Array as="points">
              <mxPoint x="139" y="210" />
              <mxPoint x="204" y="210" />
            </Array>
          </mxGeometry>
        </mxCell>
        <mxCell id="8WBUeJ8e2ZMxS5DKSKpC-83" value="Library API" style="shape=umlLifeline;perimeter=lifelinePerimeter;whiteSpace=wrap;html=1;container=0;dropTarget=0;collapsible=0;recursiveResize=0;outlineConnect=0;portConstraint=eastwest;newEdgeStyle={&quot;edgeStyle&quot;:&quot;elbowEdgeStyle&quot;,&quot;elbow&quot;:&quot;vertical&quot;,&quot;curved&quot;:0,&quot;rounded&quot;:0};" parent="1" vertex="1">
          <mxGeometry x="400" y="40" width="130" height="1080" as="geometry" />
        </mxCell>
        <mxCell id="8WBUeJ8e2ZMxS5DKSKpC-84" value="" style="html=1;points=[];perimeter=orthogonalPerimeter;outlineConnect=0;targetShapes=umlLifeline;portConstraint=eastwest;newEdgeStyle={&quot;edgeStyle&quot;:&quot;elbowEdgeStyle&quot;,&quot;elbow&quot;:&quot;vertical&quot;,&quot;curved&quot;:0,&quot;rounded&quot;:0};strokeColor=#3399FF;" parent="8WBUeJ8e2ZMxS5DKSKpC-83" vertex="1">
          <mxGeometry x="60" y="420" width="10" height="640" as="geometry" />
        </mxCell>
        <mxCell id="UOv02gEyeNIiNMxLk5ma-1" value="selectOnline(isOnline)" style="text;html=1;strokeColor=none;fillColor=none;align=center;verticalAlign=middle;whiteSpace=wrap;rounded=0;fontSize=13;" parent="1" vertex="1">
          <mxGeometry x="69.38" y="290" width="170" height="20" as="geometry" />
        </mxCell>
        <mxCell id="UOv02gEyeNIiNMxLk5ma-2" value="opt" style="shape=umlFrame;whiteSpace=wrap;html=1;pointerEvents=0;strokeColor=#000000;fontSize=13;width=40;height=20;" parent="1" vertex="1">
          <mxGeometry x="9.38" y="250" width="310.62" height="80" as="geometry" />
        </mxCell>
        <mxCell id="UOv02gEyeNIiNMxLk5ma-3" value="[Online]" style="text;html=1;strokeColor=none;fillColor=none;align=center;verticalAlign=middle;whiteSpace=wrap;rounded=0;fontSize=13;" parent="1" vertex="1">
          <mxGeometry x="9.38" y="270" width="60.62" height="20" as="geometry" />
        </mxCell>
        <mxCell id="UOv02gEyeNIiNMxLk5ma-4" value="" style="endArrow=classic;html=1;rounded=0;fontSize=13;" parent="1" edge="1">
          <mxGeometry width="50" height="50" relative="1" as="geometry">
            <mxPoint x="69.38" y="310" as="sourcePoint" />
            <mxPoint x="284.38" y="310" as="targetPoint" />
            <Array as="points">
              <mxPoint x="138.38" y="310" />
              <mxPoint x="203.38" y="310" />
            </Array>
          </mxGeometry>
        </mxCell>
        <mxCell id="UOv02gEyeNIiNMxLk5ma-9" value="" style="endArrow=classic;html=1;rounded=0;" parent="1" edge="1">
          <mxGeometry width="50" height="50" relative="1" as="geometry">
            <mxPoint x="70" y="470" as="sourcePoint" />
            <mxPoint x="285" y="470" as="targetPoint" />
            <Array as="points">
              <mxPoint x="180" y="470" />
            </Array>
          </mxGeometry>
        </mxCell>
        <mxCell id="UOv02gEyeNIiNMxLk5ma-11" value="searchQuery(textQuery)" style="text;html=1;strokeColor=none;fillColor=none;align=center;verticalAlign=middle;whiteSpace=wrap;rounded=0;fontSize=13;" parent="1" vertex="1">
          <mxGeometry x="73.75" y="450" width="156.25" height="20" as="geometry" />
        </mxCell>
        <mxCell id="UOv02gEyeNIiNMxLk5ma-12" value="" style="endArrow=classic;html=1;rounded=0;" parent="1" edge="1">
          <mxGeometry width="50" height="50" relative="1" as="geometry">
            <mxPoint x="295" y="490" as="sourcePoint" />
            <mxPoint x="460" y="490" as="targetPoint" />
            <Array as="points">
              <mxPoint x="430" y="490" />
            </Array>
          </mxGeometry>
        </mxCell>
        <mxCell id="UOv02gEyeNIiNMxLk5ma-13" value="findBooks(textQuery)" style="text;html=1;strokeColor=none;fillColor=none;align=center;verticalAlign=middle;whiteSpace=wrap;rounded=0;fontSize=13;" parent="1" vertex="1">
          <mxGeometry x="300" y="470" width="140" height="20" as="geometry" />
        </mxCell>
        <mxCell id="UOv02gEyeNIiNMxLk5ma-14" value="" style="endArrow=classic;html=1;rounded=0;" parent="1" target="aM9ryv3xv72pqoxQDRHE-6" edge="1">
          <mxGeometry width="50" height="50" relative="1" as="geometry">
            <mxPoint x="470" y="510" as="sourcePoint" />
            <mxPoint x="560" y="520" as="targetPoint" />
            <Array as="points">
              <mxPoint x="520" y="510" />
            </Array>
          </mxGeometry>
        </mxCell>
        <mxCell id="UOv02gEyeNIiNMxLk5ma-15" value="getBookData(textQuery)" style="text;html=1;strokeColor=none;fillColor=none;align=center;verticalAlign=middle;whiteSpace=wrap;rounded=0;fontSize=13;" parent="1" vertex="1">
          <mxGeometry x="480" y="490" width="160" height="20" as="geometry" />
        </mxCell>
        <mxCell id="UOv02gEyeNIiNMxLk5ma-16" value="alt" style="shape=umlFrame;whiteSpace=wrap;html=1;pointerEvents=0;strokeColor=#000000;fontSize=13;width=40;height=20;" parent="1" vertex="1">
          <mxGeometry x="10" y="560" width="480" height="440" as="geometry" />
        </mxCell>
        <mxCell id="UOv02gEyeNIiNMxLk5ma-17" value="returnData(bookData)" style="text;html=1;strokeColor=none;fillColor=none;align=center;verticalAlign=middle;whiteSpace=wrap;rounded=0;fontSize=13;" parent="1" vertex="1">
          <mxGeometry x="320" y="590" width="135" height="20" as="geometry" />
        </mxCell>
        <mxCell id="UOv02gEyeNIiNMxLk5ma-18" value="" style="endArrow=classic;html=1;rounded=0;fontSize=13;" parent="1" edge="1">
          <mxGeometry width="50" height="50" relative="1" as="geometry">
            <mxPoint x="460" y="610" as="sourcePoint" />
            <mxPoint x="295" y="610" as="targetPoint" />
            <Array as="points">
              <mxPoint x="440" y="610" />
            </Array>
          </mxGeometry>
        </mxCell>
        <mxCell id="UOv02gEyeNIiNMxLk5ma-19" value="" style="endArrow=classic;html=1;rounded=0;fontSize=13;dashed=1;" parent="1" edge="1">
          <mxGeometry width="50" height="50" relative="1" as="geometry">
            <mxPoint x="285" y="630" as="sourcePoint" />
            <mxPoint x="70" y="630" as="targetPoint" />
            <Array as="points">
              <mxPoint x="211" y="630" />
              <mxPoint x="130" y="630" />
            </Array>
          </mxGeometry>
        </mxCell>
        <mxCell id="UOv02gEyeNIiNMxLk5ma-20" value="Display Books" style="text;html=1;strokeColor=none;fillColor=none;align=center;verticalAlign=middle;whiteSpace=wrap;rounded=0;fontSize=13;" parent="1" vertex="1">
          <mxGeometry x="115" y="610" width="106.25" height="20" as="geometry" />
        </mxCell>
        <mxCell id="UOv02gEyeNIiNMxLk5ma-21" value="" style="endArrow=classic;html=1;rounded=0;dashed=1;" parent="1" source="aM9ryv3xv72pqoxQDRHE-6" edge="1">
          <mxGeometry width="50" height="50" relative="1" as="geometry">
            <mxPoint x="680" y="540" as="sourcePoint" />
            <mxPoint x="470" y="540" as="targetPoint" />
            <Array as="points">
              <mxPoint x="600" y="540" />
            </Array>
          </mxGeometry>
        </mxCell>
        <mxCell id="UOv02gEyeNIiNMxLk5ma-22" value="Books Data" style="text;html=1;strokeColor=none;fillColor=none;align=center;verticalAlign=middle;whiteSpace=wrap;rounded=0;" parent="1" vertex="1">
          <mxGeometry x="525" y="520" width="70" height="20" as="geometry" />
        </mxCell>
        <mxCell id="UOv02gEyeNIiNMxLk5ma-23" value="[Books Found]" style="text;html=1;strokeColor=none;fillColor=none;align=center;verticalAlign=middle;whiteSpace=wrap;rounded=0;fontSize=13;" parent="1" vertex="1">
          <mxGeometry x="10" y="580" width="100" height="20" as="geometry" />
        </mxCell>
        <mxCell id="UOv02gEyeNIiNMxLk5ma-24" value="returnData(null)" style="text;html=1;strokeColor=none;fillColor=none;align=center;verticalAlign=middle;whiteSpace=wrap;rounded=0;fontSize=13;" parent="1" vertex="1">
          <mxGeometry x="350.62" y="1020" width="110" height="20" as="geometry" />
        </mxCell>
        <mxCell id="UOv02gEyeNIiNMxLk5ma-25" value="" style="endArrow=classic;html=1;rounded=0;fontSize=13;" parent="1" edge="1">
          <mxGeometry width="50" height="50" relative="1" as="geometry">
            <mxPoint x="460.62" y="1040" as="sourcePoint" />
            <mxPoint x="295.62" y="1040" as="targetPoint" />
            <Array as="points">
              <mxPoint x="440.62" y="1040" />
            </Array>
          </mxGeometry>
        </mxCell>
        <mxCell id="UOv02gEyeNIiNMxLk5ma-26" value="" style="endArrow=classic;html=1;rounded=0;fontSize=13;dashed=1;" parent="1" edge="1">
          <mxGeometry width="50" height="50" relative="1" as="geometry">
            <mxPoint x="285.62" y="1060" as="sourcePoint" />
            <mxPoint x="70.62" y="1060" as="targetPoint" />
            <Array as="points">
              <mxPoint x="219.62" y="1060" />
              <mxPoint x="129.62" y="1060" />
            </Array>
          </mxGeometry>
        </mxCell>
        <mxCell id="UOv02gEyeNIiNMxLk5ma-27" value="Display No Book Found" style="text;html=1;strokeColor=none;fillColor=none;align=center;verticalAlign=middle;whiteSpace=wrap;rounded=0;fontSize=13;" parent="1" vertex="1">
          <mxGeometry x="97.81" y="1040" width="155.62" height="20" as="geometry" />
        </mxCell>
        <mxCell id="UOv02gEyeNIiNMxLk5ma-28" value="[No Books]" style="text;html=1;strokeColor=none;fillColor=none;align=center;verticalAlign=middle;whiteSpace=wrap;rounded=0;fontSize=13;" parent="1" vertex="1">
          <mxGeometry x="10.619999999999997" y="1000" width="80" height="20" as="geometry" />
        </mxCell>
        <mxCell id="UOv02gEyeNIiNMxLk5ma-46" value="viewCitation(bookID)" style="text;html=1;strokeColor=none;fillColor=none;align=center;verticalAlign=middle;whiteSpace=wrap;rounded=0;fontSize=13;" parent="1" vertex="1">
          <mxGeometry x="106.25" y="690" width="132.5" height="20" as="geometry" />
        </mxCell>
        <mxCell id="UOv02gEyeNIiNMxLk5ma-47" value="" style="endArrow=classic;html=1;rounded=0;fontSize=13;" parent="1" edge="1">
          <mxGeometry width="50" height="50" relative="1" as="geometry">
            <mxPoint x="70" y="710" as="sourcePoint" />
            <mxPoint x="285" y="710" as="targetPoint" />
            <Array as="points">
              <mxPoint x="138.75" y="710" />
              <mxPoint x="203.75" y="710" />
            </Array>
          </mxGeometry>
        </mxCell>
        <mxCell id="UOv02gEyeNIiNMxLk5ma-48" value="" style="endArrow=classic;html=1;rounded=0;fontSize=13;dashed=1;" parent="1" edge="1">
          <mxGeometry width="50" height="50" relative="1" as="geometry">
            <mxPoint x="285" y="740" as="sourcePoint" />
            <mxPoint x="70" y="740" as="targetPoint" />
            <Array as="points">
              <mxPoint x="208" y="740" />
              <mxPoint x="170" y="740" />
              <mxPoint x="128" y="740" />
            </Array>
          </mxGeometry>
        </mxCell>
        <mxCell id="UOv02gEyeNIiNMxLk5ma-49" value="Display Citation" style="text;html=1;strokeColor=none;fillColor=none;align=center;verticalAlign=middle;whiteSpace=wrap;rounded=0;fontSize=13;" parent="1" vertex="1">
          <mxGeometry x="101.25" y="720" width="115" height="20" as="geometry" />
        </mxCell>
        <mxCell id="UOv02gEyeNIiNMxLk5ma-50" value="opt" style="shape=umlFrame;whiteSpace=wrap;html=1;pointerEvents=0;strokeColor=#000000;fontSize=13;width=40;height=20;" parent="1" vertex="1">
          <mxGeometry x="30" y="650" width="290" height="110" as="geometry" />
        </mxCell>
        <mxCell id="UOv02gEyeNIiNMxLk5ma-51" value="opt" style="shape=umlFrame;whiteSpace=wrap;html=1;pointerEvents=0;strokeColor=#000000;fontSize=13;width=40;height=20;" parent="1" vertex="1">
          <mxGeometry x="30" y="760" width="290" height="110" as="geometry" />
        </mxCell>
        <mxCell id="UOv02gEyeNIiNMxLk5ma-52" value="viewSummary(bookID)" style="text;html=1;strokeColor=none;fillColor=none;align=center;verticalAlign=middle;whiteSpace=wrap;rounded=0;fontSize=13;" parent="1" vertex="1">
          <mxGeometry x="101.88" y="800" width="141.25" height="20" as="geometry" />
        </mxCell>
        <mxCell id="UOv02gEyeNIiNMxLk5ma-53" value="" style="endArrow=classic;html=1;rounded=0;fontSize=13;" parent="1" edge="1">
          <mxGeometry width="50" height="50" relative="1" as="geometry">
            <mxPoint x="70" y="820" as="sourcePoint" />
            <mxPoint x="285" y="820" as="targetPoint" />
            <Array as="points">
              <mxPoint x="100" y="820" />
              <mxPoint x="130" y="820" />
              <mxPoint x="170" y="820" />
              <mxPoint x="203" y="820" />
            </Array>
          </mxGeometry>
        </mxCell>
        <mxCell id="UOv02gEyeNIiNMxLk5ma-54" value="" style="endArrow=classic;html=1;rounded=0;fontSize=13;dashed=1;" parent="1" edge="1">
          <mxGeometry width="50" height="50" relative="1" as="geometry">
            <mxPoint x="270" y="850" as="sourcePoint" />
            <mxPoint x="70" y="850" as="targetPoint" />
            <Array as="points">
              <mxPoint x="206" y="850" />
              <mxPoint x="170" y="850" />
              <mxPoint x="126" y="850" />
            </Array>
          </mxGeometry>
        </mxCell>
        <mxCell id="UOv02gEyeNIiNMxLk5ma-55" value="Display Summary" style="text;html=1;strokeColor=none;fillColor=none;align=center;verticalAlign=middle;whiteSpace=wrap;rounded=0;fontSize=13;" parent="1" vertex="1">
          <mxGeometry x="113.75" y="830" width="106.25" height="20" as="geometry" />
        </mxCell>
        <mxCell id="UOv02gEyeNIiNMxLk5ma-56" value="opt" style="shape=umlFrame;whiteSpace=wrap;html=1;pointerEvents=0;strokeColor=#000000;fontSize=13;width=40;height=20;" parent="1" vertex="1">
          <mxGeometry x="30" y="870" width="290" height="110" as="geometry" />
        </mxCell>
        <mxCell id="UOv02gEyeNIiNMxLk5ma-57" value="viewPublishingDetails(bookID)" style="text;html=1;strokeColor=none;fillColor=none;align=center;verticalAlign=middle;whiteSpace=wrap;rounded=0;fontSize=13;" parent="1" vertex="1">
          <mxGeometry x="90" y="910" width="190" height="20" as="geometry" />
        </mxCell>
        <mxCell id="UOv02gEyeNIiNMxLk5ma-58" value="" style="endArrow=classic;html=1;rounded=0;fontSize=13;" parent="1" edge="1">
          <mxGeometry width="50" height="50" relative="1" as="geometry">
            <mxPoint x="70" y="930" as="sourcePoint" />
            <mxPoint x="285" y="930" as="targetPoint" />
            <Array as="points">
              <mxPoint x="103" y="930" />
              <mxPoint x="180" y="930" />
              <mxPoint x="250" y="930" />
            </Array>
          </mxGeometry>
        </mxCell>
        <mxCell id="UOv02gEyeNIiNMxLk5ma-59" value="" style="endArrow=classic;html=1;rounded=0;fontSize=13;dashed=1;" parent="1" edge="1">
          <mxGeometry width="50" height="50" relative="1" as="geometry">
            <mxPoint x="285" y="960" as="sourcePoint" />
            <mxPoint x="70" y="960" as="targetPoint" />
            <Array as="points">
              <mxPoint x="210" y="960" />
              <mxPoint x="129" y="960" />
            </Array>
          </mxGeometry>
        </mxCell>
        <mxCell id="UOv02gEyeNIiNMxLk5ma-60" value="Display Publishing Details" style="text;html=1;strokeColor=none;fillColor=none;align=center;verticalAlign=middle;whiteSpace=wrap;rounded=0;fontSize=13;" parent="1" vertex="1">
          <mxGeometry x="102.5" y="940" width="165" height="20" as="geometry" />
        </mxCell>
        <mxCell id="UOv02gEyeNIiNMxLk5ma-61" value="[Citation]" style="text;html=1;strokeColor=none;fillColor=none;align=center;verticalAlign=middle;whiteSpace=wrap;rounded=0;fontSize=13;" parent="1" vertex="1">
          <mxGeometry x="30" y="670" width="70" height="20" as="geometry" />
        </mxCell>
        <mxCell id="UOv02gEyeNIiNMxLk5ma-64" value="[Summary]" style="text;html=1;strokeColor=none;fillColor=none;align=center;verticalAlign=middle;whiteSpace=wrap;rounded=0;fontSize=13;" parent="1" vertex="1">
          <mxGeometry x="30.94" y="780" width="79.06" height="20" as="geometry" />
        </mxCell>
        <mxCell id="UOv02gEyeNIiNMxLk5ma-66" value="[Details]" style="text;html=1;strokeColor=none;fillColor=none;align=center;verticalAlign=middle;whiteSpace=wrap;rounded=0;fontSize=13;" parent="1" vertex="1">
          <mxGeometry x="30.94" y="890" width="59.06" height="20" as="geometry" />
        </mxCell>
        <mxCell id="UOv02gEyeNIiNMxLk5ma-29" value="" style="rounded=0;whiteSpace=wrap;html=1;fillColor=none;" parent="1" vertex="1">
          <mxGeometry x="10" y="1000" width="480" height="80" as="geometry" />
        </mxCell>
        <mxCell id="UOv02gEyeNIiNMxLk5ma-73" value="selectPrint(isPrint)" style="text;html=1;strokeColor=none;fillColor=none;align=center;verticalAlign=middle;whiteSpace=wrap;rounded=0;fontSize=13;" parent="1" vertex="1">
          <mxGeometry x="70" y="390" width="140" height="20" as="geometry" />
        </mxCell>
        <mxCell id="UOv02gEyeNIiNMxLk5ma-74" value="opt" style="shape=umlFrame;whiteSpace=wrap;html=1;pointerEvents=0;strokeColor=#000000;fontSize=13;width=40;height=20;" parent="1" vertex="1">
          <mxGeometry x="10" y="350" width="310" height="80" as="geometry" />
        </mxCell>
        <mxCell id="UOv02gEyeNIiNMxLk5ma-75" value="[Print]" style="text;html=1;strokeColor=none;fillColor=none;align=center;verticalAlign=middle;whiteSpace=wrap;rounded=0;fontSize=13;" parent="1" vertex="1">
          <mxGeometry x="10" y="370" width="50" height="20" as="geometry" />
        </mxCell>
        <mxCell id="UOv02gEyeNIiNMxLk5ma-76" value="" style="endArrow=classic;html=1;rounded=0;fontSize=13;" parent="1" edge="1">
          <mxGeometry width="50" height="50" relative="1" as="geometry">
            <mxPoint x="70" y="410" as="sourcePoint" />
            <mxPoint x="285" y="410" as="targetPoint" />
            <Array as="points">
              <mxPoint x="139" y="410" />
              <mxPoint x="204" y="410" />
            </Array>
          </mxGeometry>
        </mxCell>
      </root>
    </mxGraphModel>
  </diagram>
</mxfile>
